<?xml version="1.0" standalone="no"?>
<!DOCTYPE svg PUBLIC "-//W3C//DTD SVG 20010904//EN"
 "http://www.w3.org/TR/2001/REC-SVG-20010904/DTD/svg10.dtd">
<svg version="1.0" xmlns="http://www.w3.org/2000/svg"
 width="747.000000pt" height="747.000000pt" viewBox="0 0 747.000000 747.000000"
 preserveAspectRatio="xMidYMid meet">

<g transform="translate(0.000000,747.000000) scale(0.100000,-0.100000)"
fill="#000000" stroke="none">
<path d="M0 3735 l0 -3735 3735 0 3735 0 0 3735 0 3735 -3735 0 -3735 0 0
-3735z m6620 2550 l0 -505 -170 0 -170 0 0 335 0 335 -2705 0 -2705 0 0 -2704
0 -2705 2705 0 2705 -1 0 340 0 340 170 0 170 0 0 -505 0 -505 -3045 0 -3045
0 0 3040 0 3040 3045 0 3045 0 0 -505z m-240 -670 c143 -20 289 -64 419 -126
102 -48 238 -133 294 -184 l29 -26 -93 -152 c-51 -84 -117 -193 -147 -243
l-55 -92 -76 65 c-93 80 -240 154 -366 184 -122 30 -305 30 -418 0 -320 -84
-558 -313 -654 -628 -23 -78 -26 -105 -27 -238 -1 -127 3 -162 22 -228 77
-269 254 -476 508 -593 110 -51 198 -68 354 -68 142 0 249 19 369 66 72 28
188 106 239 159 23 23 43 41 45 38 20 -29 69 -106 128 -204 39 -66 94 -157
122 -202 l49 -83 -23 -20 c-55 -47 -206 -143 -282 -179 -203 -97 -400 -144
-610 -145 l-137 -1 -11 -40 c-6 -22 -13 -43 -15 -47 -2 -3 19 -13 48 -22 179
-52 275 -218 239 -411 -31 -164 -149 -282 -318 -315 -87 -17 -225 -9 -294 18
-51 20 -146 74 -197 113 l-21 15 44 120 c24 65 48 132 54 147 l11 28 29 -20
c52 -37 175 -91 208 -91 66 0 107 38 105 99 -1 43 -16 66 -56 85 -42 20 -105
21 -150 2 l-34 -14 18 51 c10 29 39 110 64 181 26 71 43 133 39 136 -5 4 -48
19 -98 34 -333 102 -632 339 -811 642 -338 575 -248 1301 221 1769 333 333
777 483 1235 420z m-3688 -922 l3 -898 22 -66 c49 -143 155 -264 288 -330 99
-48 173 -63 291 -56 251 14 468 205 513 451 7 40 11 343 11 928 l0 868 280 0
280 0 0 -904 c0 -974 -1 -987 -53 -1141 -27 -80 -91 -210 -116 -240 -10 -11
-30 -41 -45 -67 -37 -65 -176 -202 -267 -263 -210 -141 -395 -198 -644 -198
-156 0 -232 12 -357 54 -305 103 -575 358 -688 651 -79 205 -80 211 -80 1221
l0 887 280 0 279 0 3 -897z"/>
</g>
</svg>
