<svg xmlns="http://www.w3.org/2000/svg" version="1.1" xmlns:xlink="http://www.w3.org/1999/xlink" xmlns:svgjs="http://svgjs.dev/svgjs" width="2000" height="1247" viewBox="0 0 2000 1247"><g transform="matrix(1,0,0,1,-1.2121212121212466,0.504858299595071)"><svg viewBox="0 0 396 247" data-background-color="#ffffff" preserveAspectRatio="xMidYMid meet" height="1247" width="2000" xmlns="http://www.w3.org/2000/svg" xmlns:xlink="http://www.w3.org/1999/xlink"><g id="tight-bounds" transform="matrix(1,0,0,1,0.2400000000000091,-0.09999999999999432)"><svg viewBox="0 0 395.52 247.2" height="247.2" width="395.52"><g><svg></svg></g><g><svg viewBox="0 0 395.52 247.2" height="247.2" width="395.52"><g transform="matrix(1,0,0,1,96.40554736292428,47.215199999999996)"><svg viewBox="0 0 202.70890527415142 152.7696" height="152.7696" width="202.70890527415142"><g><svg viewBox="0 0 202.70890527415142 152.7696" height="152.7696" width="202.70890527415142"><g><svg viewBox="0 0 202.70890527415142 152.7696" height="152.7696" width="202.70890527415142"><g><svg viewBox="0 0 202.70890527415142 152.7696" height="152.7696" width="202.70890527415142"><g id="textblocktransform"><svg viewBox="0 0 202.70890527415142 152.7696" height="152.7696" width="202.70890527415142" id="textblock"><g><svg viewBox="0 0 202.70890527415142 152.7696" height="152.7696" width="202.70890527415142"><g transform="matrix(1,0,0,1,0,0)"><svg width="202.70890527415142" viewBox="2.86 -35.5 62.03 46.75" height="152.7696" data-palette-color="#2a2c35"><path d="M30.86-35.01L30.86-13.99Q30.86-11.08 29.76-8.53 28.66-5.98 26.76-4.09 24.85-2.2 22.3-1.1 19.75 0 16.85 0L16.85 0Q13.94 0 11.39-1.1 8.84-2.2 6.95-4.09 5.05-5.98 3.96-8.53 2.86-11.08 2.86-13.99L2.86-13.99 2.86-35.01 9.84-35.01 9.84-13.99Q9.84-12.55 10.39-11.28 10.94-10.01 11.89-9.06 12.84-8.11 14.12-7.56 15.41-7.01 16.85-7.01L16.85-7.01Q18.29-7.01 19.57-7.56 20.85-8.11 21.8-9.06 22.75-10.01 23.3-11.28 23.85-12.55 23.85-13.99L23.85-13.99 23.85-35.01 30.86-35.01ZM49.63 11.25L49.24 11.25Q48.36 11.21 47.56 10.89 46.75 10.57 46.12 10.21L46.12 10.21Q45.38 9.77 44.75 9.25L44.75 9.25 46.09 5.59Q46.65 6.01 47.21 6.3L47.21 6.3Q47.7 6.57 48.22 6.79 48.73 7.01 49.14 7.01L49.14 7.01Q49.68 7.01 50.03 6.67 50.39 6.32 50.39 5.76L50.39 5.76Q50.39 5.08 49.86 4.79 49.34 4.49 48.73 4.49L48.73 4.49Q47.95 4.49 47.34 4.91L47.34 4.91 49 0.24Q45.99-0.44 43.43-2.08 40.87-3.71 39-6.04 37.13-8.37 36.08-11.25 35.03-14.14 35.03-17.36L35.03-17.36Q35.03-19.85 35.68-22.17 36.33-24.49 37.51-26.5 38.69-28.52 40.35-30.18 42.01-31.84 44.03-33.02 46.04-34.2 48.35-34.85 50.66-35.5 53.15-35.5L53.15-35.5Q56.39-35.5 59.42-34.39 62.45-33.28 64.89-31.15L64.89-31.15 61.18-25.05Q59.64-26.71 57.54-27.6 55.44-28.49 53.15-28.49L53.15-28.49Q50.83-28.49 48.8-27.61 46.77-26.73 45.26-25.23 43.75-23.73 42.87-21.69 41.99-19.65 41.99-17.36L41.99-17.36Q41.99-15.06 42.87-13.05 43.75-11.04 45.26-9.52 46.77-8.01 48.8-7.13 50.83-6.25 53.15-6.25L53.15-6.25Q55.44-6.25 57.54-7.14 59.64-8.03 61.18-9.69L61.18-9.69 64.89-3.59Q62.45-1.49 59.42-0.37 56.39 0.76 53.15 0.76L53.15 0.76Q52.81 0.76 52.49 0.73 52.17 0.71 51.83 0.71L51.83 0.71 51.44 1.9Q52.19 2 52.88 2.34 53.56 2.69 54.06 3.23 54.56 3.78 54.86 4.53 55.15 5.27 55.15 6.15L55.15 6.15Q55.15 7.37 54.73 8.33 54.32 9.28 53.59 9.92 52.85 10.57 51.84 10.91 50.83 11.25 49.63 11.25L49.63 11.25Z" opacity="1" transform="matrix(1,0,0,1,0,0)" fill="#ffffff" class="wordmark-text-0" data-fill-palette-color="primary" id="text-0"></path></svg></g></svg></g></svg></g></svg></g></svg></g></svg></g></svg></g><path d="M278.707 41.215L278.707 0 31.507 0 31.507 247.2 278.707 247.2 278.707 205.985 264.93 205.985 264.93 233.423 45.284 233.423 45.284 13.777 264.93 13.777 264.93 41.215Z" fill="#ffffff" stroke="transparent" data-fill-palette-color="tertiary"></path></svg></g><defs></defs></svg><rect width="395.52" height="247.2" fill="none" stroke="none" visibility="hidden"></rect></g></svg></g></svg>